<svg width="121" height="19" viewBox="0 0 121 19" fill="none" xmlns="http://www.w3.org/2000/svg">
<path d="M4.176 1.976C3.42 2 2.838 2.288 2.43 2.84C2.034 3.392 1.836 4.346 1.836 5.702C1.836 6.146 1.878 6.458 1.962 6.638C2.046 6.806 2.088 6.902 2.088 6.926C1.44 6.926 0.954 6.794 0.63 6.53C0.318 6.254 0.162 5.804 0.162 5.18C0.162 4.328 0.372 3.554 0.792 2.858C1.212 2.15 1.878 1.58 2.79 1.148C3.714 0.715999 4.884 0.499999 6.3 0.499999C6.588 0.499999 6.972 0.529999 7.452 0.589999C8.316 0.673999 8.928 0.715999 9.288 0.715999C9.924 0.715999 10.464 0.643999 10.908 0.499999C10.872 0.607999 10.806 0.847999 10.71 1.22C10.614 1.58 10.44 1.892 10.188 2.156C9.948 2.408 9.618 2.576 9.198 2.66C8.49 2.66 7.65 2.546 6.678 2.318L5.922 5.9H8.55L8.262 7.232H5.634L4.176 14H1.584L4.176 1.976ZM13.4277 14.108C12.4197 14.108 11.6277 13.82 11.0517 13.244C10.4877 12.668 10.2057 11.75 10.2057 10.49C10.2057 9.422 10.3977 8.222 10.7817 6.89C11.1657 5.558 11.7237 4.418 12.4557 3.47C13.1997 2.522 14.0757 2.048 15.0837 2.048C15.4437 2.048 15.7557 2.096 16.0197 2.192C15.4917 2.504 14.9817 3.146 14.4897 4.118C14.0097 5.09 13.6197 6.176 13.3197 7.376C13.0197 8.576 12.8697 9.638 12.8697 10.562C12.8697 11.21 12.9537 11.72 13.1217 12.092C13.2897 12.464 13.5537 12.65 13.9137 12.65C14.5017 12.65 15.0837 12.23 15.6597 11.39C16.2477 10.538 16.7277 9.47 17.0997 8.186C17.4837 6.902 17.6757 5.666 17.6757 4.478C17.6757 3.734 17.6097 3.14 17.4777 2.696C17.3577 2.24 17.1297 1.898 16.7937 1.67C16.4577 1.442 15.9837 1.328 15.3717 1.328C14.4477 1.328 13.5897 1.52 12.7977 1.904C12.0057 2.276 11.3697 2.816 10.8897 3.524C10.4217 4.22 10.1877 5.03 10.1877 5.954C10.1877 6.278 10.2177 6.518 10.2777 6.674C10.3377 6.818 10.3677 6.902 10.3677 6.926C9.76772 6.926 9.31172 6.806 8.99972 6.566C8.69972 6.326 8.54972 5.942 8.54972 5.414C8.54972 4.586 8.88572 3.794 9.55772 3.038C10.2417 2.282 11.1417 1.67 12.2577 1.202C13.3857 0.733999 14.5677 0.499999 15.8037 0.499999C17.3037 0.499999 18.3897 0.907999 19.0617 1.724C19.7337 2.54 20.0697 3.668 20.0697 5.108C20.0697 6.392 19.8297 7.73 19.3497 9.122C18.8697 10.514 18.1257 11.696 17.1177 12.668C16.1217 13.628 14.8917 14.108 13.4277 14.108ZM25.3984 14.108C24.3904 14.108 23.5984 13.82 23.0224 13.244C22.4584 12.668 22.1764 11.75 22.1764 10.49C22.1764 9.422 22.3684 8.222 22.7524 6.89C23.1364 5.558 23.6944 4.418 24.4264 3.47C25.1704 2.522 26.0464 2.048 27.0544 2.048C27.4144 2.048 27.7264 2.096 27.9904 2.192C27.4624 2.504 26.9524 3.146 26.4604 4.118C25.9804 5.09 25.5904 6.176 25.2904 7.376C24.9904 8.576 24.8404 9.638 24.8404 10.562C24.8404 11.21 24.9244 11.72 25.0924 12.092C25.2604 12.464 25.5244 12.65 25.8844 12.65C26.4724 12.65 27.0544 12.23 27.6304 11.39C28.2184 10.538 28.6984 9.47 29.0704 8.186C29.4544 6.902 29.6464 5.666 29.6464 4.478C29.6464 3.734 29.5804 3.14 29.4484 2.696C29.3284 2.24 29.1004 1.898 28.7644 1.67C28.4284 1.442 27.9544 1.328 27.3424 1.328C26.4184 1.328 25.5604 1.52 24.7684 1.904C23.9764 2.276 23.3404 2.816 22.8604 3.524C22.3924 4.22 22.1584 5.03 22.1584 5.954C22.1584 6.278 22.1884 6.518 22.2484 6.674C22.3084 6.818 22.3384 6.902 22.3384 6.926C21.7384 6.926 21.2824 6.806 20.9704 6.566C20.6704 6.326 20.5204 5.942 20.5204 5.414C20.5204 4.586 20.8564 3.794 21.5284 3.038C22.2124 2.282 23.1124 1.67 24.2284 1.202C25.3564 0.733999 26.5384 0.499999 27.7744 0.499999C29.2744 0.499999 30.3604 0.907999 31.0324 1.724C31.7044 2.54 32.0404 3.668 32.0404 5.108C32.0404 6.392 31.8004 7.73 31.3204 9.122C30.8404 10.514 30.0964 11.696 29.0884 12.668C28.0924 13.628 26.8624 14.108 25.3984 14.108ZM38.8271 14.234C38.1071 14.234 37.3751 13.916 36.6311 13.28L36.4871 14H33.8951L36.3431 2.552L39.0071 2.192L36.8471 12.29C37.1831 12.53 37.5251 12.65 37.8731 12.65C38.5571 12.65 39.1571 12.254 39.6731 11.462C40.2011 10.67 40.6091 9.662 40.8971 8.438C41.1851 7.214 41.3291 5.978 41.3291 4.73C41.3291 3.554 41.0951 2.696 40.6271 2.156C40.1711 1.604 39.5291 1.328 38.7011 1.328C37.8011 1.328 36.9911 1.508 36.2711 1.868C35.5631 2.216 35.0051 2.72 34.5971 3.38C34.1891 4.04 33.9851 4.814 33.9851 5.702C33.9851 6.146 34.0271 6.458 34.1111 6.638C34.1951 6.806 34.2371 6.902 34.2371 6.926C33.6131 6.926 33.1331 6.794 32.7971 6.53C32.4731 6.266 32.3111 5.84 32.3111 5.252C32.3111 4.436 32.6171 3.662 33.2291 2.93C33.8411 2.198 34.6571 1.61 35.6771 1.166C36.7091 0.721999 37.8191 0.499999 39.0071 0.499999C40.6511 0.499999 41.8631 0.985999 42.6431 1.958C43.4231 2.93 43.8131 4.172 43.8131 5.684C43.8131 7.052 43.5791 8.402 43.1111 9.734C42.6551 11.054 42.0431 12.134 41.2751 12.974C40.5071 13.814 39.6911 14.234 38.8271 14.234Z" fill="#ACC236"/>
<path d="M52.451 14.324C51.695 14.324 51.029 14.192 50.453 13.928C49.877 13.664 49.433 13.298 49.121 12.83C48.809 12.35 48.653 11.798 48.653 11.174C48.653 10.646 48.761 10.166 48.977 9.734C49.205 9.302 49.505 8.96 49.877 8.708C50.261 8.456 50.681 8.33 51.137 8.33C51.557 8.33 51.911 8.438 52.199 8.654C52.487 8.858 52.667 9.146 52.739 9.518C52.115 9.518 51.617 9.686 51.245 10.022C50.873 10.346 50.687 10.79 50.687 11.354C50.687 11.87 50.843 12.284 51.155 12.596C51.467 12.908 51.881 13.064 52.397 13.064C53.033 13.064 53.555 12.854 53.963 12.434C54.383 12.002 54.593 11.462 54.593 10.814C54.593 10.25 54.437 9.716 54.125 9.212C53.813 8.708 53.345 8.096 52.721 7.376C52.073 6.632 51.581 5.996 51.245 5.468C50.921 4.928 50.759 4.34 50.759 3.704C50.759 3.08 50.933 2.522 51.281 2.03C51.629 1.526 52.109 1.13 52.721 0.842C53.333 0.553999 54.023 0.409999 54.791 0.409999C55.763 0.409999 56.537 0.637999 57.113 1.094C57.701 1.55 57.995 2.162 57.995 2.93C57.995 3.434 57.869 3.842 57.617 4.154C57.365 4.466 57.035 4.622 56.627 4.622C56.171 4.622 55.805 4.436 55.529 4.064C55.757 3.896 55.937 3.674 56.069 3.398C56.201 3.122 56.267 2.834 56.267 2.534C56.267 2.15 56.153 1.844 55.925 1.616C55.697 1.388 55.385 1.274 54.989 1.274C54.509 1.274 54.113 1.448 53.801 1.796C53.501 2.132 53.351 2.564 53.351 3.092C53.351 3.572 53.489 4.022 53.765 4.442C54.041 4.85 54.473 5.378 55.061 6.026C55.541 6.542 55.925 6.986 56.213 7.358C56.513 7.73 56.765 8.162 56.969 8.654C57.185 9.134 57.293 9.656 57.293 10.22C57.293 10.988 57.077 11.684 56.645 12.308C56.225 12.932 55.643 13.424 54.899 13.784C54.167 14.144 53.351 14.324 52.451 14.324ZM59.6746 4.334H62.2666L61.9786 5.684C62.5786 5.168 63.2806 4.91 64.0846 4.91C64.7566 4.91 65.2906 5.132 65.6866 5.576C66.0826 6.02 66.2806 6.746 66.2806 7.754C66.2806 8.702 66.1426 9.662 65.8666 10.634C65.5906 11.594 65.1226 12.416 64.4626 13.1C63.8026 13.772 62.9326 14.108 61.8526 14.108C61.0846 14.108 60.5746 13.892 60.3226 13.46L59.3866 17.852L56.6686 18.5L59.6746 4.334ZM61.2946 12.542C61.8706 12.542 62.3446 12.272 62.7166 11.732C63.1006 11.192 63.3766 10.55 63.5446 9.806C63.7246 9.05 63.8146 8.348 63.8146 7.7C63.8146 6.704 63.5146 6.206 62.9146 6.206C62.6986 6.206 62.4766 6.284 62.2486 6.44C62.0326 6.596 61.8406 6.812 61.6726 7.088L60.6106 12.128C60.7066 12.404 60.9346 12.542 61.2946 12.542ZM68.8866 14.108C68.2026 14.108 67.6326 13.874 67.1766 13.406C66.7206 12.938 66.4926 12.206 66.4926 11.21C66.4926 10.322 66.6666 9.392 67.0146 8.42C67.3746 7.436 67.9026 6.608 68.5986 5.936C69.3066 5.252 70.1466 4.91 71.1186 4.91C71.6106 4.91 71.9766 4.994 72.2166 5.162C72.4566 5.33 72.5766 5.552 72.5766 5.828V5.954L72.7746 5H75.3666L74.0706 11.12C74.0226 11.3 73.9986 11.492 73.9986 11.696C73.9986 11.936 74.0526 12.11 74.1606 12.218C74.2806 12.314 74.4726 12.362 74.7366 12.362C74.9046 12.362 75.0366 12.338 75.1326 12.29C74.8686 12.962 74.6166 13.436 74.3766 13.712C74.1366 13.976 73.7886 14.108 73.3326 14.108C72.8406 14.108 72.4386 13.964 72.1266 13.676C71.8266 13.376 71.6406 12.962 71.5686 12.434C70.8366 13.55 69.9426 14.108 68.8866 14.108ZM70.0566 12.362C70.3566 12.362 70.6506 12.224 70.9386 11.948C71.2386 11.66 71.4426 11.27 71.5506 10.778L72.4146 6.71C72.4146 6.554 72.3546 6.404 72.2346 6.26C72.1146 6.104 71.9286 6.026 71.6766 6.026C71.1966 6.026 70.7646 6.308 70.3806 6.872C69.9966 7.424 69.6966 8.096 69.4806 8.888C69.2646 9.668 69.1566 10.358 69.1566 10.958C69.1566 11.558 69.2406 11.942 69.4086 12.11C69.5886 12.278 69.8046 12.362 70.0566 12.362ZM77.5589 14.108C76.6829 14.108 75.9989 13.88 75.5069 13.424C75.0149 12.956 74.7689 12.23 74.7689 11.246C74.7689 10.418 74.9309 9.506 75.2549 8.51C75.5909 7.514 76.1189 6.656 76.8389 5.936C77.5709 5.204 78.4949 4.838 79.6109 4.838C80.3429 4.838 80.8589 4.994 81.1589 5.306C81.4589 5.618 81.6089 6.02 81.6089 6.512C81.6089 6.944 81.5129 7.268 81.3209 7.484C81.1409 7.7 80.9189 7.808 80.6549 7.808C80.4269 7.808 80.2169 7.736 80.0249 7.592C80.1689 7.208 80.2409 6.854 80.2409 6.53C80.2409 6.038 80.0789 5.792 79.7549 5.792C79.3949 5.792 79.0349 6.092 78.6749 6.692C78.3149 7.28 78.0149 7.988 77.7749 8.816C77.5469 9.632 77.4329 10.34 77.4329 10.94C77.4329 11.936 77.7929 12.434 78.5129 12.434C78.8369 12.434 79.1969 12.338 79.5929 12.146C80.0009 11.942 80.3609 11.708 80.6729 11.444C80.3489 13.22 79.3109 14.108 77.5589 14.108ZM83.8017 14.108C82.9257 14.108 82.2417 13.88 81.7497 13.424C81.2577 12.956 81.0117 12.23 81.0117 11.246C81.0117 10.418 81.1737 9.506 81.4977 8.51C81.8217 7.514 82.3497 6.656 83.0817 5.936C83.8137 5.204 84.7437 4.838 85.8717 4.838C87.1917 4.838 87.8517 5.414 87.8517 6.566C87.8517 7.238 87.6597 7.856 87.2757 8.42C86.8917 8.984 86.3817 9.44 85.7457 9.788C85.1097 10.124 84.4317 10.316 83.7117 10.364C83.6877 10.628 83.6757 10.808 83.6757 10.904C83.6757 11.9 84.0477 12.398 84.7917 12.398C85.1277 12.398 85.4877 12.308 85.8717 12.128C86.2557 11.948 86.6037 11.72 86.9157 11.444C86.5917 13.22 85.5537 14.108 83.8017 14.108ZM83.8377 9.5C84.2937 9.488 84.7197 9.338 85.1157 9.05C85.5237 8.762 85.8477 8.396 86.0877 7.952C86.3397 7.496 86.4657 7.022 86.4657 6.53C86.4657 6.038 86.3157 5.792 86.0157 5.792C85.5957 5.792 85.1757 6.176 84.7557 6.944C84.3477 7.7 84.0417 8.552 83.8377 9.5ZM98.2558 1.472C98.0038 1.472 97.7998 1.466 97.6438 1.454L96.6358 1.436C95.5318 1.436 94.9798 1.568 94.9798 1.832C95.0518 1.832 95.1178 1.88 95.1778 1.976C95.2498 2.072 95.2858 2.216 95.2858 2.408C95.2858 2.768 95.1718 3.032 94.9438 3.2C94.7278 3.356 94.4878 3.434 94.2238 3.434C93.8998 3.434 93.6658 3.332 93.5218 3.128C93.3778 2.912 93.3058 2.66 93.3058 2.372C93.3058 1.88 93.5038 1.448 93.8998 1.076C94.2958 0.691999 94.8358 0.499999 95.5198 0.499999H101.694L95.4838 12.83C95.8198 12.83 96.0778 12.836 96.2578 12.848L97.2118 12.866C97.7158 12.866 98.1238 12.842 98.4358 12.794C98.7598 12.734 98.9758 12.626 99.0838 12.47C98.9998 12.47 98.9218 12.428 98.8498 12.344C98.7898 12.248 98.7598 12.104 98.7598 11.912C98.7598 11.552 98.8678 11.288 99.0838 11.12C99.2998 10.952 99.5518 10.868 99.8398 10.868C100.152 10.868 100.38 10.97 100.524 11.174C100.68 11.378 100.758 11.624 100.758 11.912C100.758 12.224 100.662 12.542 100.47 12.866C100.278 13.19 100.002 13.46 99.6418 13.676C99.2938 13.892 98.8978 14 98.4538 14H91.9558L98.2558 1.472ZM104.088 14.108C103.2 14.108 102.51 13.88 102.018 13.424C101.526 12.956 101.28 12.23 101.28 11.246C101.28 10.418 101.442 9.506 101.766 8.51C102.09 7.514 102.618 6.656 103.35 5.936C104.082 5.204 105.012 4.838 106.14 4.838C107.46 4.838 108.12 5.414 108.12 6.566C108.12 7.238 107.928 7.856 107.544 8.42C107.16 8.984 106.65 9.44 106.014 9.788C105.378 10.124 104.7 10.316 103.98 10.364C103.956 10.724 103.944 10.964 103.944 11.084C103.944 11.672 104.046 12.074 104.25 12.29C104.454 12.494 104.784 12.596 105.24 12.596C105.888 12.596 106.44 12.446 106.896 12.146C107.364 11.846 107.874 11.39 108.426 10.778H109.038C107.706 12.998 106.056 14.108 104.088 14.108ZM104.124 9.5C104.568 9.476 104.988 9.32 105.384 9.032C105.792 8.744 106.116 8.378 106.356 7.934C106.608 7.49 106.734 7.022 106.734 6.53C106.734 6.038 106.584 5.792 106.284 5.792C105.852 5.792 105.426 6.17 105.006 6.926C104.598 7.682 104.304 8.54 104.124 9.5ZM110.474 14.108C109.898 14.108 109.412 14 109.016 13.784C108.62 13.556 108.326 13.268 108.134 12.92C107.942 12.56 107.846 12.188 107.846 11.804C107.846 11.408 107.942 11.066 108.134 10.778C108.314 10.478 108.536 10.262 108.8 10.13C109.268 9.29 109.676 8.444 110.024 7.592C110.372 6.728 110.702 5.798 111.014 4.802L113.678 4.442C113.738 5.978 113.84 7.64 113.984 9.428C114.044 10.148 114.074 10.67 114.074 10.994C114.074 11.27 114.05 11.498 114.002 11.678C114.566 11.354 114.998 11.054 115.298 10.778H116.054C115.286 11.666 114.368 12.416 113.3 13.028C112.952 13.4 112.52 13.676 112.004 13.856C111.5 14.024 110.99 14.108 110.474 14.108ZM109.898 12.686C110.342 12.686 110.714 12.554 111.014 12.29C111.314 12.026 111.464 11.6 111.464 11.012C111.464 10.652 111.428 10.148 111.356 9.5C111.236 8.132 111.158 7.214 111.122 6.746C110.834 7.694 110.348 8.828 109.664 10.148C109.94 10.292 110.078 10.502 110.078 10.778C110.078 11.006 110 11.21 109.844 11.39C109.7 11.57 109.514 11.66 109.286 11.66C109.034 11.66 108.872 11.582 108.8 11.426C108.8 11.858 108.884 12.176 109.052 12.38C109.232 12.584 109.514 12.686 109.898 12.686ZM116.987 14.108C116.375 14.108 115.919 13.922 115.619 13.55C115.331 13.178 115.187 12.686 115.187 12.074C115.187 11.762 115.223 11.444 115.295 11.12L116.447 5.72H115.853L115.997 5H116.591L117.131 2.516L119.795 2.156C119.687 2.612 119.627 2.882 119.615 2.966C119.531 3.302 119.387 3.98 119.183 5H120.263L120.119 5.72H119.039L117.887 11.12C117.827 11.384 117.797 11.594 117.797 11.75C117.797 12.182 118.007 12.398 118.427 12.398C118.643 12.398 118.799 12.38 118.895 12.344C118.655 13.04 118.373 13.508 118.049 13.748C117.725 13.988 117.371 14.108 116.987 14.108Z" fill="#FBFBFB"/>
</svg>
